<?xml version="1.0" encoding="utf-8"?>
<!-- Generator: Adobe Illustrator 27.2.0, SVG Export Plug-In . SVG Version: 6.00 Build 0)  -->
<svg version="1.1" id="Ebene_1" xmlns="http://www.w3.org/2000/svg" xmlns:xlink="http://www.w3.org/1999/xlink" x="0px" y="0px"
	 viewBox="0 0 209.8 39.3" style="enable-background:new 0 0 209.8 39.3;" xml:space="preserve">
<style type="text/css">
	.st0{fill-rule:evenodd;clip-rule:evenodd;}
</style>
<g>
	<path class="st0" d="M94.4,0h-8.4v38h8.4V21.4c1.1-1.9,3.2-4,5.6-4c2.6,0,4.3,1.6,4.3,5.3l0,15.3h8.4l0-16.9
		c0-7.2-4.9-10.1-9.7-10.1c-3.9,0-6.8,1.7-8.5,3.9L94.4,0z"/>
	<path class="st0" d="M199,11.5v4.2c1.7-3,4.6-4.7,7.4-4.7c1.3,0,2.4,0.2,3.4,0.5l-1.7,7.6c-1.1-0.4-2.2-0.6-3.4-0.6
		c-3.2,0-4.8,2-5.7,4V38h-8.4V11.5H199z"/>
	<path class="st0" d="M129.8,11.5h-8.4V38h8.4V21.4c1.1-1.9,3.2-4,5.6-4c2.6,0,4.3,1.6,4.3,5.3l0,15.3h8.4l0-16.9
		c0-7.2-4.9-10.1-9.7-10.1c-3.9,0-6.8,1.7-8.5,3.9L129.8,11.5z"/>
	<polygon class="st0" points="36.8,11.5 45.1,11.5 35,38 28.3,38 22.6,21.1 16.9,38 10.1,38 0,11.5 9.1,11.5 14.2,27.4 19.6,11.5 
		26.3,11.5 31.7,27.5 	"/>
	<path class="st0" d="M164.1,26.6c0.4,4.3,4.1,7,9.1,7c2.6,0,5.2-0.7,7-1.8l1.8,4.5c-3.8,2.3-8.6,2.7-10.9,2.7
		c-9.7,0-15.9-5.3-15.9-14.2c0-8.6,5.9-14.3,14.6-14.3c8.5,0,14.5,5.6,14.1,16.1C183.9,26.6,164.1,26.6,164.1,26.6z M164.1,21.5
		h11.6c-0.3-3.4-2.5-5.9-5.7-5.9C166.7,15.6,164.6,18.1,164.1,21.5z"/>
	<path class="st0" d="M57.1,24.7c0-6.5,2.9-9.5,6.8-9.5c3.8,0,6.8,2.9,6.8,9.5s-2.9,9.5-6.8,9.5C60,34.2,57.1,31.3,57.1,24.7z
		 M48.5,24.7c0-8.8,6.9-14.5,15.3-14.5c8.4,0,15.3,5.7,15.3,14.5s-6.9,14.5-15.3,14.5C55.5,39.3,48.5,33.5,48.5,24.7z M69.9,0
		C67.8,0,66,1.7,66,3.9s1.7,3.9,3.9,3.9s3.9-1.7,3.9-3.9C73.8,1.7,72.1,0,69.9,0z M57.7,0c-2.2,0-3.9,1.7-3.9,3.9s1.7,3.9,3.9,3.9
		s3.9-1.7,3.9-3.9C61.6,1.7,59.9,0,57.7,0z"/>
</g>
</svg>
