<?xml version="1.0" encoding="UTF-8"?>
<svg xmlns="http://www.w3.org/2000/svg" xmlns:xlink="http://www.w3.org/1999/xlink" id="logo-condumax" width="240" height="75.112" viewBox="0 0 240 75.112">
  <defs>
    <clipPath id="clip-path">
      <rect id="Retângulo_1" data-name="Retângulo 1" width="240" height="75.112" fill="none"></rect>
    </clipPath>
  </defs>
  <g id="Grupo_3" data-name="Grupo 3" clip-path="url(#clip-path)">
    <path id="Caminho_26" data-name="Caminho 26" d="M45.031,10.964Q40.752,27,36.5,43.058c-14.719,2.53-27.872,3.725-33.554-1.425-5.058-4.942-2.367-12-.965-16.782a23.387,23.387,0,0,1,4.392-8.369,15.5,15.5,0,0,1,9.843-6c8.278-1.7,17.984-1.4,28.816.484" transform="translate(0 10.763)" fill="#1e3c6f" fill-rule="evenodd"></path>
    <path id="Caminho_27" data-name="Caminho 27" d="M11.522,14.7H18.4L15.131,27.157H8.164Z" transform="translate(9.386 16.895)" fill="#fdc347" fill-rule="evenodd"></path>
    <path id="Caminho_28" data-name="Caminho 28" d="M5.426,15.176h7.633l-.505,2.184Z" transform="translate(6.237 17.448)" fill="#fdc347" fill-rule="evenodd"></path>
    <path id="Caminho_29" data-name="Caminho 29" d="M4.163,16.652,3.7,18.308l9.521,2.552L13.707,19Z" transform="translate(4.257 19.145)" fill="#fdc347" fill-rule="evenodd"></path>
    <path id="Caminho_30" data-name="Caminho 30" d="M3.874,17.957l-.46,1.655,9.521,2.552L13.44,20.3Z" transform="translate(3.925 20.645)" fill="#fdc347" fill-rule="evenodd"></path>
    <path id="Caminho_31" data-name="Caminho 31" d="M11.363,21.3l-8.3.045.482-2.184Z" transform="translate(3.519 22.034)" fill="#fdc347" fill-rule="evenodd"></path>
    <path id="Caminho_32" data-name="Caminho 32" d="M4.471,15.4,4.035,17.08l9.5,2.528.505-1.84Z" transform="translate(4.639 17.706)" fill="#fdc347" fill-rule="evenodd"></path>
    <path id="Caminho_33" data-name="Caminho 33" d="M15.569,30.785,12.026,44.9q8.177-.035,16.191-.3c2.483-5.656,4.944-7.909,11.66-7.726,8.577.23,8.738,2.094,10.74,6.666,4.875-.3,9.7-.619,14.465-.987,33.805-2.485,64.783-7.012,92.4-14.508C183.446,21.036,206.467,11.726,226.174,0,173.212,22.094,115.514,32.234,15.569,30.785" transform="translate(13.825 0.001)" fill="#fdc347" fill-rule="evenodd"></path>
    <path id="Caminho_34" data-name="Caminho 34" d="M30.042,35.543l4.9-18.369H43.4l-.92,4.138c1.608-3.1,4.323-4.807,8.945-4.392,1.909.161,3.014.529,3.818,1.679.782,1.15.552,2.872.092,4.873l-2.874,12.07H43.473l2.092-7.887a1.874,1.874,0,0,0-1.793-2.62A3.249,3.249,0,0,0,40.9,27.727L38.78,35.543Z" transform="translate(34.537 19.383)" fill="#1e3c6f" fill-rule="evenodd"></path>
    <path id="Caminho_35" data-name="Caminho 35" d="M57.593,16.952H66.63l-3.1,11.518c-.252.965.116,1.47,1.38,1.47a2.192,2.192,0,0,0,2.461-1.285l3.173-11.7h8.923L76.219,29.435c-1.309,5.013-5.931,6.782-12.487,6.576-7.519-.254-10.3-2.068-9.4-6.206.322-1.427.759-2.807,1.1-4.23Z" transform="translate(62.271 19.489)" fill="#1e3c6f" fill-rule="evenodd"></path>
    <path id="Caminho_36" data-name="Caminho 36" d="M64.885,35.341,69.6,17.317h8.577L77.42,21.18c1.954-2.9,2.3-4.323,7.522-4.368,3.057-.024,5.357,1.539,5.333,4.667,2.023-3.678,3.588-4.8,7.476-4.8,3.654,0,5.954,2.16,5.105,5.54L99.541,35.341H90.986l2.07-8.276c.714-2.807-3.472-2.782-4.23-.047l-2.279,8.323h-8.6L79.9,27.179c.666-2.782-3.358-3.035-4.117-.206l-2.16,8.369Z" transform="translate(74.594 19.17)" fill="#1e3c6f" fill-rule="evenodd"></path>
    <path id="Caminho_37" data-name="Caminho 37" d="M94.177,35.223l7.337-8.76L97.9,16.717h9.2l1.494,5.815,4.093-5.815h9.751l-7.932,9.469,3.265,9.037h-8.809L107.47,29.89l-3.794,5.333Z" transform="translate(108.269 19.219)" fill="#1e3c6f" fill-rule="evenodd"></path>
    <path id="Caminho_38" data-name="Caminho 38" d="M110.174,25.463a1.844,1.844,0,0,1-1.864,1.907,1.862,1.862,0,0,1,0-3.723,1.876,1.876,0,0,1,.989.275,1.834,1.834,0,0,1,.875,1.541m-.23.092a1.6,1.6,0,0,0-.481-1.219,1.569,1.569,0,0,0-1.152-.46,1.525,1.525,0,0,0-1.15.46,1.64,1.64,0,0,0,0,2.322,1.554,1.554,0,0,0,1.15.484,1.507,1.507,0,0,0,1.174-.507,1.473,1.473,0,0,0,.46-1.079m-2.393-1.012h.828l.484.14.183.389-.135.346a.633.633,0,0,1-.462.206l.322.206a4.97,4.97,0,0,1,.344.666h-.3a2.829,2.829,0,0,0-.391-.69.747.747,0,0,0-.505-.159h-.116V26.5h-.254Zm.254.9h.322a.847.847,0,0,0,.505-.09l.114-.277-.114-.254a1.158,1.158,0,0,0-.46-.067h-.368Z" transform="translate(122.375 27.186)" fill="#1e3c6f" fill-rule="evenodd"></path>
    <path id="Caminho_39" data-name="Caminho 39" d="M5.82,31.3h4.622l-.32,1.15H6.832l-.6,2.137H9.384l-.32,1.15H5.912l-.942,3.427H3.681Zm9.635,0h1.359l-2.184,7.863H13.294ZM26.977,34.47a2.184,2.184,0,0,0-.436-1.655,1.825,1.825,0,0,0-1.494-.574,2.6,2.6,0,0,0-1.1.228,3.045,3.045,0,0,0-.9.716,5.41,5.41,0,0,0-.759,1.285,5.778,5.778,0,0,0-.344,1.494,2.347,2.347,0,0,0,.413,1.679,1.869,1.869,0,0,0,1.494.6,2.529,2.529,0,0,0,1.081-.23,2.853,2.853,0,0,0,.9-.688,4.671,4.671,0,0,0,.78-1.311,5.121,5.121,0,0,0,.368-1.541m-1.724-3.379a2.9,2.9,0,0,1,2.345.92,3.177,3.177,0,0,1,.69,2.528,5.42,5.42,0,0,1-.482,1.909A5.794,5.794,0,0,1,26.7,38.1a3.771,3.771,0,0,1-1.38.942,4.007,4.007,0,0,1-1.655.325,3.049,3.049,0,0,1-2.369-.9,3.334,3.334,0,0,1-.69-2.506,6.594,6.594,0,0,1,.507-1.954,5.329,5.329,0,0,1,1.1-1.632,4.225,4.225,0,0,1,1.4-.965,4.5,4.5,0,0,1,1.634-.322M38.821,33.55H37.579a1.309,1.309,0,0,0-.322-1.012,1.435,1.435,0,0,0-1.058-.344,1.627,1.627,0,0,0-.965.275,1.009,1.009,0,0,0-.23,1.4,3.4,3.4,0,0,0,.989.643,5.067,5.067,0,0,1,1.61,1.129,1.714,1.714,0,0,1,.368,1.285,2.292,2.292,0,0,1-.92,1.771,3.3,3.3,0,0,1-2.137.669,2.648,2.648,0,0,1-1.98-.669,2.213,2.213,0,0,1-.621-1.816l.024-.183h1.242v.09a1.293,1.293,0,0,0,.344,1.081,1.56,1.56,0,0,0,1.15.391,1.7,1.7,0,0,0,1.081-.344,1.109,1.109,0,0,0,.322-1.5,2.259,2.259,0,0,0-.69-.529l-.439-.23a9.358,9.358,0,0,1-1.309-.8,1.791,1.791,0,0,1-.484-.69,2.032,2.032,0,0,1-.116-.851,2.149,2.149,0,0,1,.875-1.584,3.146,3.146,0,0,1,2-.621,2.821,2.821,0,0,1,1.933.6,1.994,1.994,0,0,1,.574,1.722Z" transform="translate(4.232 35.744)" fill="#1e3c6f" fill-rule="evenodd"></path>
    <path id="Caminho_40" data-name="Caminho 40" d="M64.447,32.441h4.921l-.275,1.15H65.46l-.552,2.07h3.472l-.3,1.126H64.63l-.6,2.367h3.91l-.3,1.15h-5.2Zm10.187,0h1.311l-1.7,6.692H78.13l-.3,1.172H72.657Zm9.888,0h4.923l-.277,1.15H85.514l-.531,2.07h3.474l-.3,1.126h-3.45l-.6,2.367H88l-.277,1.15h-5.2Zm3.128-2.666h1.266l-1.909,1.909h-.69Zm6.393,2.666h5.75l-.277,1.1H97.4L95.677,40.3H94.39l1.7-6.758H93.768Zm11.43,1.1-.6,2.414h1.748a2.075,2.075,0,0,0,1.311-.368,1.31,1.31,0,0,0,.484-1.034.826.826,0,0,0-.277-.759,1.561,1.561,0,0,0-.965-.254Zm-1.01-1.1h2.829a2.84,2.84,0,0,1,1.885.507,1.79,1.79,0,0,1,.574,1.539,2.49,2.49,0,0,1-.46,1.335,2.108,2.108,0,0,1-1.1.8.909.909,0,0,1,.46.415,1.791,1.791,0,0,1,.09.759l-.022.183V38.1l-.092.849-.021.23-.024.185.045.436.183.275v.23h-1.516l-.071-.23v-.228l.024-.415.024-.254.092-.92.024-.09v-.092a.9.9,0,0,0-.232-.8,1.855,1.855,0,0,0-1.058-.209H104.6l-.828,3.242h-1.288Zm11.038,0h1.356L114.835,40.3H113.5Zm12.511,2.62h-1.288a1.582,1.582,0,0,0-.439-1.217,1.665,1.665,0,0,0-1.264-.46,2.529,2.529,0,0,0-1.15.3,2.989,2.989,0,0,0-.92.875,5.074,5.074,0,0,0-.574,1.2,5.015,5.015,0,0,0-.254,1.333,2.324,2.324,0,0,0,.413,1.679,1.782,1.782,0,0,0,1.449.6,2.091,2.091,0,0,0,1.359-.484,2.739,2.739,0,0,0,.92-1.333h1.288a4.088,4.088,0,0,1-1.38,2.184,3.765,3.765,0,0,1-2.416.782,2.813,2.813,0,0,1-2.274-.92,3.472,3.472,0,0,1-.692-2.575,6.564,6.564,0,0,1,.37-1.771,6.275,6.275,0,0,1,.9-1.515,3.838,3.838,0,0,1,1.4-1.1,4.218,4.218,0,0,1,1.726-.368,2.888,2.888,0,0,1,2.115.735,2.791,2.791,0,0,1,.714,2.068m10.462.552a2.18,2.18,0,0,0-.46-1.653,1.9,1.9,0,0,0-1.494-.6,2.584,2.584,0,0,0-1.1.252,2.7,2.7,0,0,0-.9.714,4.618,4.618,0,0,0-.712,1.285,4.3,4.3,0,0,0-.322,1.494,2.266,2.266,0,0,0,.436,1.679,1.906,1.906,0,0,0,1.494.6,2.473,2.473,0,0,0,1.081-.252,2.617,2.617,0,0,0,.9-.69,5.468,5.468,0,0,0,.759-1.288,5.175,5.175,0,0,0,.32-1.541m-1.769-3.4a3.1,3.1,0,0,1,2.367.92,3.46,3.46,0,0,1,.737,2.552,5.593,5.593,0,0,1-.462,1.907,5.239,5.239,0,0,1-1.056,1.634,4,4,0,0,1-1.359.965,4.538,4.538,0,0,1-1.677.322,3.049,3.049,0,0,1-2.369-.9,3.287,3.287,0,0,1-.737-2.509,5.779,5.779,0,0,1,.46-1.952,5.617,5.617,0,0,1,1.06-1.655,4.552,4.552,0,0,1,1.378-.944,4.111,4.111,0,0,1,1.657-.344M150.3,34.7h-1.24a1.294,1.294,0,0,0-.322-1.012,1.505,1.505,0,0,0-1.06-.346,1.627,1.627,0,0,0-.987.277.909.909,0,0,0-.391.714.833.833,0,0,0,.206.666,3.223,3.223,0,0,0,1.012.666,5.487,5.487,0,0,1,1.632,1.126,1.913,1.913,0,0,1,.391,1.288,2.4,2.4,0,0,1-.9,1.771,3.343,3.343,0,0,1-2.137.666,2.78,2.78,0,0,1-1.978-.666,2.184,2.184,0,0,1-.645-1.816v-.185h1.266l-.024.092a1.346,1.346,0,0,0,.391,1.081,1.847,1.847,0,0,0,2.208.045,1.117,1.117,0,0,0,.46-.875.955.955,0,0,0-.161-.619,1.813,1.813,0,0,0-.714-.529l-.415-.232a6.958,6.958,0,0,1-1.333-.825,1.821,1.821,0,0,1-.507-.669,2.069,2.069,0,0,1-.114-.851,2.037,2.037,0,0,1,.83-1.608,3.139,3.139,0,0,1,2-.619,2.705,2.705,0,0,1,1.933.619,2.022,2.022,0,0,1,.621,1.724Z" transform="translate(71.79 34.231)" fill="#1e3c6f" fill-rule="evenodd"></path>
    <path id="Caminho_41" data-name="Caminho 41" d="M40.183,33.854H38.9a1.583,1.583,0,0,0-.436-1.24,1.7,1.7,0,0,0-1.266-.436,2.194,2.194,0,0,0-1.15.3,2.491,2.491,0,0,0-.9.873,4.261,4.261,0,0,0-.576,1.174,4.419,4.419,0,0,0-.23,1.354,2.356,2.356,0,0,0,.439,1.679,1.761,1.761,0,0,0,1.449.576,2.064,2.064,0,0,0,1.356-.46,2.928,2.928,0,0,0,.9-1.356h1.288A3.85,3.85,0,0,1,38.412,38.5a3.664,3.664,0,0,1-2.393.8,2.942,2.942,0,0,1-2.3-.918,3.648,3.648,0,0,1-.714-2.6,5.725,5.725,0,0,1,.346-1.748,6.133,6.133,0,0,1,.849-1.518,4.272,4.272,0,0,1,1.4-1.1,3.853,3.853,0,0,1,1.724-.368,2.923,2.923,0,0,1,2.115.735,2.705,2.705,0,0,1,.737,2.068m7.956-1.309-1.93,3.5h2.3Zm-.527-1.335h1.563l.942,7.863H48.808l-.185-1.907H45.588l-1.081,1.907H43.1Zm8.8,4.3-.6,2.461h1.885a4.583,4.583,0,0,0,.92-.069,1.145,1.145,0,0,0,.505-.206l.436-.46a1.57,1.57,0,0,0,.161-.645.947.947,0,0,0-.3-.828,1.947,1.947,0,0,0-1.1-.254Zm.785-3.194-.531,2.163h1.795a2.412,2.412,0,0,0,1.311-.3,1.09,1.09,0,0,0,.436-.922.8.8,0,0,0-.254-.712,1.61,1.61,0,0,0-.942-.23Zm-1.036-1.1H59.18a2.777,2.777,0,0,1,1.793.507,1.759,1.759,0,0,1,.552,1.47,2.094,2.094,0,0,1-.391,1.15,1.875,1.875,0,0,1-.965.69,1.53,1.53,0,0,1,.688.621,1.762,1.762,0,0,1,.209.965,2.407,2.407,0,0,1-.851,1.816,3.24,3.24,0,0,1-2.16.643H54.281Zm16.374,3.2a2.4,2.4,0,0,0-.482-1.677,1.915,1.915,0,0,0-1.52-.576,2.583,2.583,0,0,0-1.1.254,2.189,2.189,0,0,0-.875.712,4.318,4.318,0,0,0-.712,1.288,4.728,4.728,0,0,0-.3,1.47,2.326,2.326,0,0,0,.482,1.679,1.832,1.832,0,0,0,1.5.6,2.424,2.424,0,0,0,1.079-.23,2.737,2.737,0,0,0,.875-.688,4.5,4.5,0,0,0,.735-1.311,5.116,5.116,0,0,0,.322-1.518m-1.84-3.4a3.076,3.076,0,0,1,2.393.918,3.457,3.457,0,0,1,.782,2.53,6.223,6.223,0,0,1-.439,1.93,5.068,5.068,0,0,1-1.058,1.632,4,4,0,0,1-1.333.967,4.395,4.395,0,0,1-1.657.32A3.071,3.071,0,0,1,67,38.386a3.329,3.329,0,0,1-.759-2.509,5.518,5.518,0,0,1,.415-1.928,5.057,5.057,0,0,1,1.058-1.657,3.879,3.879,0,0,1,1.356-.942,4.073,4.073,0,0,1,1.632-.344m13.661,2.459H83.1a1.178,1.178,0,0,0-.346-.989,1.376,1.376,0,0,0-1.058-.37,1.608,1.608,0,0,0-.965.277.882.882,0,0,0-.391.735.866.866,0,0,0,.206.666,3.558,3.558,0,0,0,1.012.669,4.97,4.97,0,0,1,1.655,1.124,1.792,1.792,0,0,1,.415,1.29,2.327,2.327,0,0,1-.875,1.769,3.281,3.281,0,0,1-2.115.666,2.882,2.882,0,0,1-2-.666,2.286,2.286,0,0,1-.666-1.838v-.185h1.264l-.021.114A1.458,1.458,0,0,0,79.6,37.81a1.714,1.714,0,0,0,1.174.391,1.61,1.61,0,0,0,1.058-.346,1.124,1.124,0,0,0,.436-.873.985.985,0,0,0-.161-.643,2.439,2.439,0,0,0-.712-.531l-.439-.23a6.927,6.927,0,0,1-1.333-.8,1.772,1.772,0,0,1-.643-1.541,2.066,2.066,0,0,1,.8-1.586,3.078,3.078,0,0,1,1.978-.621,2.812,2.812,0,0,1,1.956.621,2.052,2.052,0,0,1,.643,1.7Z" transform="translate(37.941 35.646)" fill="#1e3c6f" fill-rule="evenodd"></path>
    <path id="Caminho_42" data-name="Caminho 42" d="M27.358,31.122h4.921l-.23,1.15H28.415l-.484,2.092H31.4l-.252,1.129H27.7L27.2,37.859h3.887l-.254,1.126H25.655Z" transform="translate(29.494 35.78)" fill="#1e3c6f" fill-rule="evenodd"></path>
    <path id="Caminho_43" data-name="Caminho 43" d="M31.534,36.392a31.274,31.274,0,0,1-8.485-.643c-4.14-1.24-4.394-4.828-3.727-9.151a12.867,12.867,0,0,1,1.612-4.252c3.149-5.264,4.759-5.449,11.842-5.563,4.83-.069,10.4.688,10.3,5.976a19.544,19.544,0,0,1-.69,4.714c-1.748,6.184-4.645,8.437-10.856,8.919m.254-12.782c2.139.024,2.554,1.586,2.094,3.54a4.128,4.128,0,0,1-3.957,3.54c-2.068-.021-2.552-1.586-2.092-3.54.436-1.954,1.793-3.564,3.955-3.54" transform="translate(21.89 19.29)" fill="#1e3c6f" fill-rule="evenodd"></path>
    <path id="Caminho_44" data-name="Caminho 44" d="M69.781,14.866,63.663,37.74H54.946l.552-2.827c-2.3,2.691-4.392,3.45-7.842,3.358-5.518-.138-5.772-5.243-4.622-9.4a23.17,23.17,0,0,1,2.44-6.092c1.769-2.874,4.23-3.93,7.61-3.93,2.784,0,5.288,1.217,5.705,4.23l2.068-8.209ZM55.361,25.81c2.046.024,2.438,1.494,2,3.356a3.929,3.929,0,0,1-3.749,3.358c-1.978-.021-2.414-1.518-2-3.358.436-1.862,1.726-3.379,3.747-3.356" transform="translate(48.84 17.091)" fill="#1e3c6f" fill-rule="evenodd"></path>
    <path id="Caminho_45" data-name="Caminho 45" d="M95.579,35.4l.965-3.609c-1.771,1.93-2.438,3.953-8.508,4.024-5.658.045-5.52-5.679-4.415-9.749,1.793-6.645,4.506-9.45,9.751-9.45,2.506,0,4.989.436,5.98,3.609l.9-3.149,8.807-.092L104.41,35.4Zm.275-11.817c1.978.021,2.345,1.447,1.93,3.242a3.8,3.8,0,0,1-3.633,3.263c-1.907-.021-2.343-1.449-1.93-3.263a3.744,3.744,0,0,1,3.633-3.242" transform="translate(95.437 19.108)" fill="#1e3c6f" fill-rule="evenodd"></path>
  </g>
</svg>
